<svg width="34" height="35" viewBox="0 0 34 35" fill="none" xmlns="http://www.w3.org/2000/svg">
<path d="M11.1748 18.3576C11.5702 18.7432 12.2033 18.7352 12.5889 18.3397C12.9744 17.9443 12.9664 17.3112 12.571 16.9256L11.1748 18.3576ZM7.00777 11.5015C6.61233 11.116 5.97922 11.124 5.59367 11.5194C5.20812 11.9149 5.21613 12.548 5.61157 12.9335L7.00777 11.5015ZM6.30967 11.2175C5.75738 11.2175 5.30967 11.6652 5.30967 12.2175C5.30967 12.7698 5.75738 13.2175 6.30967 13.2175V11.2175ZM28.5624 13.2175C29.1147 13.2175 29.5624 12.7698 29.5624 12.2175C29.5624 11.6652 29.1147 11.2175 28.5624 11.2175V13.2175ZM5.61147 11.5015C5.21603 11.8871 5.20802 12.5202 5.59357 12.9156C5.97912 13.311 6.61223 13.3191 7.00767 12.9335L5.61147 11.5015ZM12.5709 7.5094C12.9663 7.12385 12.9743 6.49073 12.5888 6.0953C12.2032 5.69986 11.5701 5.69185 11.1747 6.0774L12.5709 7.5094ZM23.6977 16.9256C23.3023 16.5401 22.6692 16.5481 22.2836 16.9435C21.8981 17.339 21.9061 17.9721 22.3015 18.3576L23.6977 16.9256ZM27.8647 23.7817C28.2602 24.1673 28.8933 24.1593 29.2788 23.7638C29.6644 23.3684 29.6564 22.7353 29.2609 22.3497L27.8647 23.7817ZM28.5624 24.0657C29.1147 24.0657 29.5624 23.618 29.5624 23.0657C29.5624 22.5135 29.1147 22.0657 28.5624 22.0657V24.0657ZM6.30967 22.0657C5.75738 22.0657 5.30967 22.5135 5.30967 23.0657C5.30967 23.618 5.75738 24.0657 6.30967 24.0657V22.0657ZM29.2609 23.7817C29.6564 23.3962 29.6644 22.7631 29.2788 22.3677C28.8933 21.9722 28.2602 21.9642 27.8647 22.3497L29.2609 23.7817ZM22.3015 27.7739C21.9061 28.1594 21.8981 28.7925 22.2836 29.188C22.6692 29.5834 23.3023 29.5914 23.6977 29.2059L22.3015 27.7739ZM12.571 16.9256L7.00777 11.5015L5.61157 12.9335L11.1748 18.3576L12.571 16.9256ZM6.30967 13.2175H28.5624V11.2175H6.30967V13.2175ZM7.00767 12.9335L12.5709 7.5094L11.1747 6.0774L5.61147 11.5015L7.00767 12.9335ZM22.3015 18.3576L27.8647 23.7817L29.2609 22.3497L23.6977 16.9256L22.3015 18.3576ZM28.5624 22.0657H6.30967V24.0657H28.5624V22.0657ZM27.8647 22.3497L22.3015 27.7739L23.6977 29.2059L29.2609 23.7817L27.8647 22.3497Z" fill="white"/>
</svg>
