<svg width="32" height="32" viewBox="0 0 32 32" fill="none" xmlns="http://www.w3.org/2000/svg">
<path d="M19.6001 7.20039C19.6001 6.53765 19.0628 6.00039 18.4001 6.00039C17.7374 6.00039 17.2001 6.53765 17.2001 7.20039H19.6001ZM17.2001 13.5999C17.2001 14.2626 17.7374 14.7999 18.4001 14.7999C19.0628 14.7999 19.6001 14.2626 19.6001 13.5999H17.2001ZM18.4004 12.4003C17.7376 12.4003 17.2004 12.9376 17.2004 13.6003C17.2004 14.2631 17.7376 14.8003 18.4004 14.8003V12.4003ZM24.7997 14.8003C25.4624 14.8003 25.9997 14.2631 25.9997 13.6003C25.9997 12.9376 25.4624 12.4003 24.7997 12.4003V14.8003ZM17.5519 12.7516C17.0832 13.2202 17.0832 13.98 17.5519 14.4486C18.0205 14.9172 18.7803 14.9172 19.2489 14.4486L17.5519 12.7516ZM28.8487 4.84852C29.3174 4.37988 29.3173 3.62008 28.8487 3.15146C28.3801 2.68284 27.6203 2.68285 27.1517 3.15148L28.8487 4.84852ZM12.3993 24.7995C12.3993 25.4622 12.9366 25.9995 13.5993 25.9995C14.2621 25.9995 14.7993 25.4622 14.7993 24.7995H12.3993ZM14.7993 18.4C14.7993 17.7373 14.2621 17.2 13.5993 17.2C12.9366 17.2 12.3993 17.7373 12.3993 18.4H14.7993ZM13.6005 19.5996C14.2632 19.5996 14.8005 19.0624 14.8005 18.3996C14.8005 17.7369 14.2632 17.1996 13.6005 17.1996V19.5996ZM7.20117 17.1996C6.53843 17.1996 6.00117 17.7369 6.00117 18.3996C6.00117 19.0624 6.53843 19.5996 7.20117 19.5996V17.1996ZM14.4483 19.2485C14.917 18.7799 14.917 18.0201 14.4483 17.5515C13.9797 17.0828 13.2199 17.0828 12.7513 17.5515L14.4483 19.2485ZM3.15146 27.1516C2.68284 27.6202 2.68285 28.38 3.15148 28.8486C3.62012 29.3172 4.37992 29.3172 4.84854 28.8486L3.15146 27.1516ZM18.4001 7.20039H17.2001V13.5999H18.4001H19.6001V7.20039H18.4001ZM18.4004 13.6003V14.8003H24.7997V13.6003V12.4003H18.4004V13.6003ZM18.4004 13.6001L19.2489 14.4486L28.8487 4.84852L28.0002 4L27.1517 3.15148L17.5519 12.7516L18.4004 13.6001ZM13.5993 24.7995H14.7993V18.4H13.5993H12.3993V24.7995H13.5993ZM13.6005 18.3996V17.1996H7.20117V18.3996V19.5996H13.6005V18.3996ZM13.5998 18.4L12.7513 17.5515L3.15146 27.1516L4 28.0001L4.84854 28.8486L14.4483 19.2485L13.5998 18.4Z" fill="white"/>
</svg>
