<svg width="25" height="25" viewBox="0 0 25 25" fill="none" xmlns="http://www.w3.org/2000/svg">
<path d="M21.3921 9.48578C21.5108 9.90059 21.9434 10.1406 22.3582 10.0219C22.773 9.90312 23.013 9.47059 22.8943 9.05578L21.3921 9.48578ZM19.577 4.81776L20.1397 4.27572L20.1391 4.27509L19.577 4.81776ZM14.3255 1.92708L14.4834 1.16194L14.4819 1.16164L14.3255 1.92708ZM8.40676 2.53087L8.09902 1.81279L8.09825 1.81312L8.40676 2.53087ZM3.80883 6.41934L3.15226 5.99594L3.15225 5.99595L3.80883 6.41934ZM5.08285 19.7618L5.64778 19.2222L5.64744 19.2218L5.08285 19.7618ZM18.0177 21.0766L18.4625 21.7188L18.4627 21.7187L18.0177 21.0766ZM22.5172 16.6231C22.677 16.2223 22.4816 15.7678 22.0808 15.608C21.68 15.4482 21.2256 15.6436 21.0658 16.0444L22.5172 16.6231ZM21.3873 9.07419C21.2787 9.49179 21.5293 9.9183 21.9469 10.0268C22.3645 10.1354 22.791 9.8848 22.8995 9.4672L21.3873 9.07419ZM23.9713 5.34325C24.0798 4.92565 23.8293 4.49914 23.4117 4.39061C22.9941 4.28209 22.5675 4.53264 22.459 4.95024L23.9713 5.34325ZM21.9351 10.0237C22.351 10.1386 22.7813 9.89463 22.8962 9.47874C23.0111 9.06285 22.7672 8.63255 22.3513 8.51763L21.9351 10.0237ZM18.3526 7.41268C17.9367 7.29775 17.5064 7.54173 17.3915 7.95762C17.2766 8.37351 17.5206 8.80381 17.9364 8.91873L18.3526 7.41268ZM11.9203 9.27067C11.9203 8.8392 11.5706 8.48942 11.1391 8.48942C10.7076 8.48942 10.3578 8.8392 10.3578 9.27067H11.9203ZM11.1391 13.7992H10.3578C10.3578 14.2306 10.7076 14.5804 11.1391 14.5804V13.7992ZM15.6676 14.5804C16.0991 14.5804 16.4488 14.2306 16.4488 13.7992C16.4488 13.3677 16.0991 13.0179 15.6676 13.0179V14.5804ZM22.1432 9.27078L22.8943 9.05578C22.3806 7.26122 21.4348 5.61997 20.1397 4.27572L19.577 4.81776L19.0144 5.35981C20.1323 6.52012 20.9487 7.93679 21.3921 9.48578L22.1432 9.27078ZM19.577 4.81776L20.1391 4.27509C18.6102 2.69171 16.639 1.60668 14.4834 1.16194L14.3255 1.92708L14.1676 2.69221C16.0152 3.07339 17.7047 4.00335 19.015 5.36043L19.577 4.81776ZM14.3255 1.92708L14.4819 1.16164C12.3376 0.723514 10.1107 0.950695 8.09902 1.81279L8.40676 2.53087L8.7145 3.24896C10.4336 2.51224 12.3367 2.3181 14.1691 2.69251L14.3255 1.92708ZM8.40676 2.53087L8.09825 1.81312C6.07044 2.68472 4.34846 4.14099 3.15226 5.99594L3.80883 6.41934L4.4654 6.84274C5.49324 5.24887 6.97286 3.99756 8.71527 3.24863L8.40676 2.53087ZM3.80883 6.41934L3.15225 5.99595C0.243716 10.5065 0.80868 16.4232 4.51826 20.3018L5.08285 19.7618L5.64744 19.2218C2.43748 15.8656 1.94861 10.7458 4.46541 6.84272L3.80883 6.41934ZM5.08285 19.7618L4.51791 20.3014C8.18452 24.1399 14.0986 24.7411 18.4625 21.7188L18.0177 21.0766L17.5729 20.4343C13.8409 23.0189 8.78339 22.5048 5.64778 19.2222L5.08285 19.7618ZM18.0177 21.0766L18.4627 21.7187C20.2856 20.4555 21.6958 18.6831 22.5172 16.6231L21.7915 16.3337L21.0658 16.0444C20.3581 17.8192 19.1432 19.3461 17.5727 20.4344L18.0177 21.0766ZM22.1434 9.27069L22.8995 9.4672L23.9713 5.34325L23.2151 5.14675L22.459 4.95024L21.3873 9.07419L22.1434 9.27069ZM22.1432 9.27066L22.3513 8.51763L18.3526 7.41268L18.1445 8.1657L17.9364 8.91873L21.9351 10.0237L22.1432 9.27066ZM11.1391 9.27067H10.3578V13.7992H11.1391H11.9203V9.27067H11.1391ZM11.1391 13.7992V14.5804H15.6676V13.7992V13.0179H11.1391V13.7992Z" fill="white"/>
</svg>
