<svg width="25" height="25" viewBox="0 0 25 25" fill="none" xmlns="http://www.w3.org/2000/svg">
<path fill-rule="evenodd" clip-rule="evenodd" d="M19.197 7.67859H5.80311C5.06373 7.67859 4.46436 8.27797 4.46436 9.01734V19.7322C4.46436 21.9512 6.26321 23.75 8.48221 23.75H16.5179C17.5835 23.75 18.6055 23.3267 19.359 22.5732C20.1125 21.8197 20.5358 20.7978 20.5358 19.7322V9.01734C20.5358 8.27797 19.9364 7.67859 19.197 7.67859Z" stroke="#FF8989" stroke-linecap="round" stroke-linejoin="round"/>
<path d="M10.3208 13.0352C10.3208 12.759 10.097 12.5352 9.82084 12.5352C9.5447 12.5352 9.32084 12.759 9.32084 13.0352H10.3208ZM9.32084 18.3918C9.32084 18.6679 9.5447 18.8918 9.82084 18.8918C10.097 18.8918 10.3208 18.6679 10.3208 18.3918H9.32084ZM15.6791 13.0352C15.6791 12.759 15.4553 12.5352 15.1791 12.5352C14.903 12.5352 14.6791 12.759 14.6791 13.0352H15.6791ZM14.6791 18.3918C14.6791 18.6679 14.903 18.8918 15.1791 18.8918C15.4553 18.8918 15.6791 18.6679 15.6791 18.3918H14.6791ZM15.3315 1.75C15.6077 1.75 15.8315 1.52614 15.8315 1.25C15.8315 0.973858 15.6077 0.75 15.3315 0.75V1.75ZM9.97491 0.75C9.69877 0.75 9.47491 0.973858 9.47491 1.25C9.47491 1.52614 9.69877 1.75 9.97491 1.75V0.75ZM20.5358 4.96429C20.8119 4.96429 21.0358 4.74043 21.0358 4.46429C21.0358 4.18815 20.8119 3.96429 20.5358 3.96429V4.96429ZM4.46436 3.96429C4.18821 3.96429 3.96436 4.18815 3.96436 4.46429C3.96436 4.74043 4.18821 4.96429 4.46436 4.96429V3.96429ZM9.32084 13.0352V18.3918H10.3208V13.0352H9.32084ZM14.6791 13.0352V18.3918H15.6791V13.0352H14.6791ZM15.3315 0.75H9.97491V1.75H15.3315V0.75ZM20.5358 3.96429H4.46436V4.96429H20.5358V3.96429Z" fill="#FF8989"/>
</svg>
