<svg width="30" height="28" viewBox="0 0 30 28" fill="none" xmlns="http://www.w3.org/2000/svg">
<path d="M10.1786 2C10.1786 8.3336 5.95564 14 0 14C5.95564 14 10.1786 19.6668 10.1786 26C10.1786 19.6668 14.4015 14 20.3571 14C14.4015 14 10.1786 8.3336 10.1786 2Z" fill="white"/>
<path d="M22.2319 14.2667C22.2319 17.3635 20.1212 20.1333 17.1426 20.1333C20.1212 20.1333 22.2319 22.904 22.2319 26C22.2319 22.904 24.3425 20.1333 27.3211 20.1333C24.3425 20.1333 22.2319 17.3635 22.2319 14.2667Z" fill="white"/>
<path d="M24.9106 2C24.9106 5.09643 22.7999 7.86667 19.8213 7.86667C22.7995 7.86667 24.9106 10.6373 24.9106 13.7333C24.9106 10.6373 27.0212 7.86667 29.9999 7.86667C27.0212 7.86667 24.9106 5.09643 24.9106 2Z" fill="white"/>
</svg>
