<svg width="26" height="21" viewBox="0 0 26 21" fill="none" xmlns="http://www.w3.org/2000/svg">
<circle cx="12.8969" cy="9.13049" r="3.78259" stroke="white" stroke-width="2" stroke-linecap="round"/>
<path d="M7.24612 20C7.19727 18.5508 8.33055 15.6522 13.2545 15.6522C18.1784 15.6522 19.1162 18.5508 18.9697 20" stroke="white" stroke-width="2" stroke-linecap="round"/>
<path d="M1.0517 16.0869C1.00575 14.6377 2.07159 11.7391 6.70245 11.7391" stroke="white" stroke-width="2" stroke-linecap="round"/>
<path fill-rule="evenodd" clip-rule="evenodd" d="M10.5142 3.05762C10.0865 3.22556 9.59867 3.09583 9.25262 2.79351C8.687 2.29937 7.94687 2 7.13681 2C5.3599 2 3.91943 3.44047 3.91943 5.21737C3.91943 6.47425 4.64014 7.5628 5.69084 8.09229C6.08557 8.29122 6.37505 8.6884 6.37505 9.13042C6.37505 9.7586 5.85123 10.3143 5.26491 10.0889C3.30815 9.33652 1.91943 7.43912 1.91943 5.21737C1.91943 2.3359 4.25533 0 7.13681 0C8.66556 0 10.0407 0.657501 10.995 1.70514C11.4074 2.15793 11.0843 2.83378 10.5142 3.05762Z" fill="white"/>
<path d="M24.9478 16.0869C24.9938 14.6377 23.9279 11.7391 19.2971 11.7391" stroke="white" stroke-width="2" stroke-linecap="round"/>
<path fill-rule="evenodd" clip-rule="evenodd" d="M15.4853 3.05762C15.913 3.22556 16.4008 3.09583 16.7469 2.79351C17.3125 2.29937 18.0526 2 18.8627 2C20.6396 2 22.0801 3.44047 22.0801 5.21737C22.0801 6.47425 21.3594 7.5628 20.3087 8.09229C19.9139 8.29122 19.6245 8.6884 19.6245 9.13042C19.6245 9.7586 20.1483 10.3143 20.7346 10.0889C22.6914 9.33652 24.0801 7.43912 24.0801 5.21737C24.0801 2.3359 21.7442 0 18.8627 0C17.334 0 15.9588 0.657501 15.0045 1.70514C14.5921 2.15793 14.9152 2.83378 15.4853 3.05762Z" fill="white"/>
</svg>
