<svg width="23" height="22" viewBox="0 0 23 22" fill="none" xmlns="http://www.w3.org/2000/svg">
<path d="M18.7637 7.0977C18.7637 7.54888 19.1294 7.91463 19.5806 7.91463C20.0318 7.91463 20.3975 7.54888 20.3975 7.0977H18.7637ZM20.3975 2.74114C20.3975 2.28997 20.0318 1.92422 19.5806 1.92422C19.1294 1.92422 18.7637 2.28997 18.7637 2.74114L20.3975 2.74114ZM19.5823 3.55765C20.0335 3.55765 20.3993 3.1919 20.3993 2.74072C20.3993 2.28955 20.0335 1.9238 19.5823 1.9238V3.55765ZM15.2259 1.9238C14.7747 1.9238 14.409 2.28955 14.409 2.74072C14.409 3.1919 14.7747 3.55765 15.2259 3.55765V1.9238ZM12.1984 8.79507C11.8794 9.1141 11.8794 9.63135 12.1984 9.95038C12.5175 10.2694 13.0347 10.2694 13.3537 9.95036L12.1984 8.79507ZM19.889 3.41493C20.208 3.0959 20.208 2.57865 19.889 2.25963C19.5699 1.9406 19.0527 1.94061 18.7337 2.25964L19.889 3.41493ZM3.01013 15.0917C3.01013 14.6405 2.64438 14.2747 2.19321 14.2747C1.74203 14.2747 1.37629 14.6405 1.37629 15.0917H3.01013ZM1.37628 19.4482C1.37628 19.8994 1.74203 20.2652 2.19321 20.2652C2.64438 20.2652 3.01013 19.8994 3.01013 19.4482H1.37628ZM2.19141 18.6314C1.74023 18.6314 1.37448 18.9971 1.37448 19.4483C1.37448 19.8995 1.74023 20.2652 2.19141 20.2652L2.19141 18.6314ZM6.54785 20.2652C6.99902 20.2652 7.36477 19.8995 7.36477 19.4483C7.36477 18.9971 6.99902 18.6314 6.54785 18.6314L6.54785 20.2652ZM10.0848 13.2187C10.4038 12.8996 10.4038 12.3824 10.0848 12.0634C9.76573 11.7444 9.24848 11.7444 8.92946 12.0634L10.0848 13.2187ZM2.39421 18.5988C2.07518 18.9179 2.07519 19.4351 2.39422 19.7541C2.71326 20.0731 3.2305 20.0731 3.54953 19.7541L2.39421 18.5988ZM19.5806 7.0977H20.3975L20.3975 2.74114L19.5806 2.74114L18.7637 2.74114V7.0977H19.5806ZM19.5823 2.74072V1.9238L15.2259 1.9238V2.74072V3.55765L19.5823 3.55765V2.74072ZM12.7761 9.37272L13.3537 9.95036L19.889 3.41493L19.3113 2.83729L18.7337 2.25964L12.1984 8.79507L12.7761 9.37272ZM2.19321 15.0917H1.37629L1.37628 19.4482H2.19321H3.01013L3.01013 15.0917H2.19321ZM2.19141 19.4483L2.19141 20.2652H6.54785L6.54785 19.4483V18.6314H2.19141L2.19141 19.4483ZM9.50712 12.641L8.92946 12.0634L2.39421 18.5988L2.97187 19.1765L3.54953 19.7541L10.0848 13.2187L9.50712 12.641Z" fill="white"/>
</svg>
