<svg width="55" height="25" viewBox="0 0 55 25" fill="none" xmlns="http://www.w3.org/2000/svg">
<path d="M0 7.8961H2.93605C2.93605 7.8961 2.93605 9.84308 5.32839 9.84308C6.95953 9.84308 7.3945 9.08592 7.3945 8.43693C7.3945 6.05728 0.217485 7.8961 0.217485 3.56947C0.217485 1.62249 2.06611 0 5.11091 0C9.46061 0 10.1131 2.48781 10.1131 3.56947H7.17702C7.17702 3.56947 7.17702 2.05515 5.11091 2.05515C3.91474 2.05515 3.26228 2.66088 3.26228 3.35314C3.26228 5.30012 10.4393 3.89397 10.4393 8.11243C10.4393 10.2757 8.59067 11.8982 5.32839 11.8982C0.869941 11.8982 0 9.19409 0 7.8961Z" fill="white"/>
<path d="M19.9985 9.19409V11.5737H11.4078V0.324497H14.4526V9.19409H19.9985Z" fill="white"/>
<path d="M24.0126 3.7858H20.9678C21.1418 0.908592 23.4689 0 26.0787 0C28.7973 0 30.9721 0.973492 30.9721 3.89397V11.5737H27.9273V9.41042H27.8186C27.8186 9.41042 27.1226 11.8982 24.2301 11.8982C22.164 11.8982 20.6416 10.9464 20.6416 8.86959C20.6416 6.77118 22.3814 5.81932 24.2518 5.34339C26.1439 4.86746 27.9273 4.71603 27.9273 3.4613C27.9273 2.57435 27.2749 2.05515 26.0787 2.05515C24.7738 2.05515 24.0561 2.57435 24.0126 3.7858ZM27.9273 5.90585C27.4271 6.36015 26.4049 6.59811 25.535 6.81444C24.5563 7.05241 23.7299 7.54997 23.7299 8.54509C23.7299 9.41042 24.3388 9.95125 25.3175 9.95125C27.3836 9.95125 27.9273 7.5716 27.9273 5.90585Z" fill="white"/>
<path d="M32.0519 11.5737V0.324497H34.988V2.16331H35.0967C35.0967 2.16331 36.0754 0 38.5765 0C41.73 0 42.5999 2.05515 42.5999 4.65113V11.5737H39.5551V5.30012C39.5551 3.35314 39.0114 2.48781 37.5978 2.48781C35.9666 2.48781 35.0967 3.4613 35.0967 5.73278V11.5737H32.0519Z" fill="white"/>
<path d="M55 0.324497V10.2757C55 13.5207 53.2601 15.7922 49.3454 15.7922C44.1257 15.7922 44.017 11.8982 44.017 11.8982H47.0618C47.0618 11.8982 47.1705 13.5207 49.3454 13.5207C51.281 13.5207 51.9552 12.4391 51.9552 10.4921V9.95125H51.8465C51.8465 9.95125 50.8678 11.4656 48.4754 11.4656C45.2132 11.4656 43.582 8.65326 43.582 5.73278C43.582 2.81231 45.2132 0 48.4754 0C50.9765 0 51.9552 1.83882 51.9552 1.83882H52.0639V0.324497H55ZM52.0639 5.73278C52.0639 3.9156 51.194 2.27148 49.3454 2.27148C47.4968 2.27148 46.6268 3.9156 46.6268 5.73278C46.6268 7.54997 47.4968 9.19409 49.3454 9.19409C51.194 9.19409 52.0639 7.54997 52.0639 5.73278Z" fill="white"/>
<path d="M8.69941 22.2959V24.6755H0.108743V13.4263H3.15354V22.2959H8.69941Z" fill="white"/>
<path d="M12.7135 16.8876H9.66875C9.84274 14.0104 12.1698 13.1018 14.7797 13.1018C17.4982 13.1018 19.6731 14.0753 19.6731 16.9957V24.6755H16.6283V22.5122H16.5195C16.5195 22.5122 15.8236 25 12.931 25C10.8649 25 9.34252 24.0481 9.34252 21.9714C9.34252 19.8729 11.0824 18.9211 12.9528 18.4452C14.8449 17.9692 16.6283 17.8178 16.6283 16.5631C16.6283 15.6761 15.9758 15.1569 14.7797 15.1569C13.4747 15.1569 12.757 15.6761 12.7135 16.8876ZM16.6283 19.0076C16.1281 19.4619 15.1059 19.6999 14.2359 19.9162C13.2573 20.1542 12.4308 20.6517 12.4308 21.6469C12.4308 22.5122 13.0398 23.053 14.0185 23.053C16.0846 23.053 16.6283 20.6734 16.6283 19.0076Z" fill="white"/>
<path d="M20.2168 13.4263H30.4386V15.8059H26.7414V21.106C26.7414 22.0795 27.0676 22.404 28.0463 22.404C28.6987 22.404 29.0249 22.2959 29.0249 22.2959V24.5673C29.0249 24.5673 28.4812 24.7837 27.1763 24.7837C25.1102 24.7837 23.6966 24.2428 23.6966 21.6469V15.8059H20.2168V13.4263Z" fill="white"/>
<path d="M30.6476 19.0509C30.6476 15.7626 32.5832 13.1018 36.3022 13.1018C40.0212 13.1018 41.7393 15.7626 41.7393 19.0509C41.7393 19.3105 41.7176 19.6999 41.7176 19.6999H33.7141C33.8446 21.4305 34.5841 22.7285 36.411 22.7285C38.2596 22.7285 38.5858 20.9979 38.5858 20.9979H41.6306C41.6306 20.9979 40.9781 25 36.3022 25C32.4962 25 30.6476 22.3391 30.6476 19.0509ZM36.3022 15.3732C34.8016 15.3732 34.0621 16.3684 33.8011 17.7529H38.6076C38.4118 16.3684 37.8029 15.3732 36.3022 15.3732Z" fill="white"/>
</svg>
