<svg width="20" height="22" viewBox="0 0 20 22" fill="none" xmlns="http://www.w3.org/2000/svg">
<path d="M15.7295 13.3643C16.1558 13.3644 16.5399 13.6219 16.7012 14.0166L19.1562 20.0273L19.1875 20.1191C19.3104 20.5801 18.964 21.0497 18.4697 21.0498C18.2121 21.0498 17.9752 20.917 17.8408 20.7031L17.79 20.6064L17.3789 19.6709H13.874L13.5176 20.584C13.4078 20.865 13.1366 21.0498 12.835 21.0498C12.3146 21.0496 11.9604 20.5218 12.1572 20.04L14.6182 14.0166L14.6885 13.875C14.8759 13.5612 15.2168 13.3644 15.5898 13.3643H15.7295ZM3.86914 11.9844C4.26862 11.9846 4.59265 12.3085 4.59277 12.708V14.793C4.59277 16.6974 6.05342 18.1913 7.91113 18.1914H9.24316C9.65145 18.1915 9.98222 18.5224 9.98242 18.9307C9.98242 19.3391 9.65157 19.6708 9.24316 19.6709H7.91113C5.25487 19.6708 3.14551 17.5091 3.14551 14.793V12.708C3.14563 12.3084 3.4695 11.9844 3.86914 11.9844ZM14.5205 18.1914H16.7988L15.6592 15.3408L14.5205 18.1914ZM13.3018 3.01855C15.9579 3.01874 18.0673 5.18047 18.0674 7.89648V9.98145C18.0674 10.3812 17.7435 10.7051 17.3438 10.7051C16.9441 10.705 16.6201 10.3811 16.6201 9.98145V7.89648C16.6201 5.99211 15.1594 4.49823 13.3018 4.49805H11.2959C10.8875 4.49797 10.5567 4.16717 10.5566 3.75879C10.5566 3.35034 10.8875 3.01863 11.2959 3.01855H13.3018ZM4.54297 0.950195C4.9425 0.95042 5.2666 1.27425 5.2666 1.67383V2.3291H7.89551C8.30398 2.32913 8.63477 2.66085 8.63477 3.06934C8.63457 3.47765 8.30386 3.80856 7.89551 3.80859H7.41406C7.273 4.64009 6.86497 6.05092 5.62891 7.40332C6.08188 7.70976 6.6421 8.0514 7.28418 8.34375L7.41602 8.41895C7.68333 8.60564 7.82339 8.93718 7.74316 9.25781L7.72168 9.33105C7.59129 9.69331 7.20793 9.89986 6.84473 9.79297L6.77246 9.76758C5.87446 9.39499 5.14214 8.94065 4.54004 8.44141C4.01687 8.8279 3.39603 9.21547 2.65234 9.57715L2.31934 9.7334C1.96178 9.89582 1.55327 9.72942 1.3877 9.38574L1.3584 9.31445C1.22097 8.93245 1.41979 8.51681 1.78906 8.35742L2.03418 8.24707C2.57629 7.99531 3.04075 7.71515 3.39355 7.4082C3.12346 7.10008 2.88584 6.7817 2.68164 6.46582L2.48145 6.13867C2.19673 5.6483 2.58165 5.08809 3.13574 5.08789C3.43885 5.08789 3.70988 5.26251 3.86719 5.51562L4.02051 5.75C4.17308 5.97376 4.34972 6.20622 4.54297 6.43945C5.42193 5.45827 5.81713 4.42298 5.96094 3.80859H1.18945C0.781169 3.80848 0.450395 3.4776 0.450195 3.06934C0.450195 2.6609 0.781045 2.32921 1.18945 2.3291H3.81836V1.67383C3.81836 1.27411 4.14325 0.950195 4.54297 0.950195Z" fill="white" stroke="white" stroke-width="0.1"/>
</svg>
