<svg width="36" height="35" viewBox="0 0 36 35" fill="#FFFFFF" xmlns="http://www.w3.org/2000/svg">
<path d="M26.5078 21.5449C27.0676 21.5449 27.5725 21.8841 27.7842 22.4023L31.4512 31.3789C31.7435 32.0944 31.2172 32.8779 30.4443 32.8779C30.013 32.8779 29.6219 32.6234 29.4482 32.2285L28.8389 30.8418H23.6533L23.125 32.1953C22.9641 32.6071 22.5671 32.8779 22.125 32.8779C21.3622 32.8779 20.8424 32.1046 21.1309 31.3984L24.8066 22.4023C25.0183 21.8842 25.5224 21.5451 26.082 21.5449H26.5078ZM8.88574 19.5088C9.47125 19.509 9.94629 19.9838 9.94629 20.5693V23.6475C9.94629 26.464 12.1066 28.6738 14.8545 28.6738H16.8203C17.419 28.6738 17.9043 29.1592 17.9043 29.7578C17.9042 30.3563 17.4189 30.8418 16.8203 30.8418H14.8545C10.9369 30.8418 7.8252 27.6537 7.8252 23.6475V20.5693C7.8252 19.9837 8.30006 19.5088 8.88574 19.5088ZM24.6016 28.6738H27.9893L26.2949 24.4355L24.6016 28.6738ZM22.8135 6.27051C26.7309 6.27064 29.8428 9.45869 29.8428 13.4648V16.543C29.8427 17.1286 29.3679 17.6035 28.7822 17.6035C28.1966 17.6035 27.7217 17.1286 27.7217 16.543V13.4648C27.7217 10.6484 25.5613 8.43861 22.8135 8.43848H19.8525C19.2539 8.43848 18.7686 7.95314 18.7686 7.35449C18.7686 6.75586 19.2539 6.27051 19.8525 6.27051H22.8135ZM9.87988 3.21582C10.4656 3.21582 10.9404 3.69068 10.9404 4.27637V5.25195H14.8311C15.4296 5.25199 15.9149 5.73744 15.915 6.33594C15.915 6.93456 15.4297 7.41988 14.8311 7.41992H14.1123C13.905 8.64723 13.3042 10.7369 11.4717 12.7383C12.142 13.1922 12.9727 13.6983 13.9248 14.1318C14.4736 14.3817 14.7727 15.0069 14.5664 15.5801C14.3626 16.1462 13.7379 16.4524 13.1768 16.2197C11.8489 15.6689 10.7663 14.9971 9.87695 14.2588C8.99135 14.9136 7.91477 15.5689 6.59375 16.1689C6.03523 16.4227 5.39184 16.1288 5.18555 15.5557C4.98414 14.996 5.27578 14.3861 5.81738 14.1523C6.77734 13.738 7.59586 13.2674 8.19531 12.7441C7.65626 12.1301 7.20534 11.4877 6.84375 10.8652C6.42676 10.1474 6.9905 9.3252 7.80371 9.3252C8.24805 9.32531 8.64603 9.58132 8.87695 9.95312C9.14782 10.3893 9.49236 10.8567 9.88184 11.3262C11.19 9.86866 11.7744 8.32833 11.9854 7.41992H4.92969C4.33104 7.41992 3.8457 6.93458 3.8457 6.33594C3.84585 5.73742 4.33113 5.25195 4.92969 5.25195H8.81934V4.27637C8.81934 3.6908 9.29435 3.216 9.87988 3.21582Z" fill="#FFFFFF" stroke="#FFFFFF" stroke-width="0.13125"/>
</svg>
