<svg width="25" height="25" viewBox="0 0 25 25" fill="none" xmlns="http://www.w3.org/2000/svg">
<path d="M18.2142 8.71429C18.4903 8.71429 18.7142 8.49043 18.7142 8.21429C18.7142 7.93814 18.4903 7.71429 18.2142 7.71429V8.71429ZM9.64276 7.71429C9.36662 7.71429 9.14276 7.93814 9.14276 8.21429C9.14276 8.49043 9.36662 8.71429 9.64276 8.71429V7.71429ZM18.2142 13C18.4903 13 18.7142 12.7761 18.7142 12.5C18.7142 12.2239 18.4903 12 18.2142 12V13ZM9.64276 12C9.36662 12 9.14276 12.2239 9.14276 12.5C9.14276 12.7761 9.36662 13 9.64276 13V12ZM13.9285 17.2857C14.2046 17.2857 14.4285 17.0619 14.4285 16.7857C14.4285 16.5096 14.2046 16.2857 13.9285 16.2857V17.2857ZM9.64276 16.2857C9.36662 16.2857 9.14276 16.5096 9.14276 16.7857C9.14276 17.0619 9.36662 17.2857 9.64276 17.2857V16.2857ZM5.35692 15.8571C5.63306 15.8571 5.85692 15.6333 5.85692 15.3571C5.85692 15.081 5.63306 14.8571 5.35692 14.8571V15.8571ZM3.92834 14.8571C3.6522 14.8571 3.42834 15.081 3.42834 15.3571C3.42834 15.6333 3.6522 15.8571 3.92834 15.8571V14.8571ZM1.07129 14.8571C0.795147 14.8571 0.571289 15.081 0.571289 15.3571C0.571289 15.6333 0.795147 15.8571 1.07129 15.8571V14.8571ZM3.92843 15.8571C4.20457 15.8571 4.42843 15.6333 4.42843 15.3571C4.42843 15.081 4.20457 14.8571 3.92843 14.8571V15.8571ZM5.35692 10.1429C5.63306 10.1429 5.85692 9.919 5.85692 9.64286C5.85692 9.36672 5.63306 9.14286 5.35692 9.14286V10.1429ZM3.92834 9.14286C3.6522 9.14286 3.42834 9.36672 3.42834 9.64286C3.42834 9.919 3.6522 10.1429 3.92834 10.1429V9.14286ZM1.07129 9.14286C0.795147 9.14286 0.571289 9.36672 0.571289 9.64286C0.571289 9.919 0.795147 10.1429 1.07129 10.1429V9.14286ZM3.92843 10.1429C4.20457 10.1429 4.42843 9.919 4.42843 9.64286C4.42843 9.36672 4.20457 9.14286 3.92843 9.14286V10.1429ZM3.42834 9.64286C3.42834 9.919 3.6522 10.1429 3.92834 10.1429C4.20449 10.1429 4.42834 9.919 4.42834 9.64286H3.42834ZM4.42834 15.3571C4.42834 15.081 4.20449 14.8571 3.92834 14.8571C3.6522 14.8571 3.42834 15.081 3.42834 15.3571H4.42834ZM4.42852 9.64286C4.42852 9.36672 4.20466 9.14286 3.92852 9.14286C3.65238 9.14286 3.42852 9.36672 3.42852 9.64286H4.42852ZM3.42852 15.3571C3.42852 15.6333 3.65238 15.8571 3.92852 15.8571C4.20466 15.8571 4.42852 15.6333 4.42852 15.3571H3.42852ZM18.2142 7.71429H9.64276V8.71429H18.2142V7.71429ZM18.2142 12H9.64276V13H18.2142V12ZM13.9285 16.2857H9.64276V17.2857H13.9285V16.2857ZM5.35692 14.8571H3.92834V15.8571H5.35692V14.8571ZM1.07129 15.8571H3.92843V14.8571H1.07129V15.8571ZM5.35692 9.14286H3.92834V10.1429H5.35692V9.14286ZM1.07129 10.1429H3.92843V9.14286H1.07129V10.1429ZM4.42834 9.64286V8.21429H3.42834V9.64286H4.42834ZM4.42834 8.21429C4.42834 5.33452 6.76286 3 9.64263 3V2C6.21058 2 3.42834 4.78223 3.42834 8.21429H4.42834ZM9.64263 3H18.2141V2H9.64263V3ZM18.2141 3C21.0938 3 23.4283 5.33452 23.4283 8.21429H24.4283C24.4283 4.78223 21.6461 2 18.2141 2V3ZM23.4283 8.21429V16.7857H24.4283V8.21429H23.4283ZM23.4283 16.7857C23.4283 19.6655 21.0938 22 18.2141 22V23C21.6461 23 24.4283 20.2178 24.4283 16.7857H23.4283ZM18.2141 22H9.64263V23H18.2141V22ZM9.64263 22C6.76286 22 4.42834 19.6655 4.42834 16.7857H3.42834C3.42834 20.2178 6.21058 23 9.64263 23V22ZM4.42834 16.7857V15.3571H3.42834V16.7857H4.42834ZM3.42852 9.64286V15.3571H4.42852V9.64286H3.42852Z" fill="#787878"/>
</svg>
