<svg width="25" height="25" viewBox="0 0 25 25" fill="none" xmlns="http://www.w3.org/2000/svg">
<path d="M12.5 1.04169C11.6712 1.04169 10.8763 1.37093 10.2903 1.95698C9.70424 2.54303 9.375 3.33789 9.375 4.16669V12.5C9.375 13.3288 9.70424 14.1237 10.2903 14.7097C10.8763 15.2958 11.6712 15.625 12.5 15.625C13.3288 15.625 14.1237 15.2958 14.7097 14.7097C15.2958 14.1237 15.625 13.3288 15.625 12.5V4.16669C15.625 3.33789 15.2958 2.54303 14.7097 1.95698C14.1237 1.37093 13.3288 1.04169 12.5 1.04169Z" stroke="#787878" stroke-linecap="round" stroke-linejoin="round"/>
<path d="M19.7918 10.4167V12.5C19.7918 14.4339 19.0236 16.2886 17.6562 17.656C16.2887 19.0235 14.434 19.7917 12.5002 19.7917C10.5663 19.7917 8.71163 19.0235 7.34418 17.656C5.97672 16.2886 5.2085 14.4339 5.2085 12.5V10.4167" stroke="#787878" stroke-linecap="round" stroke-linejoin="round"/>
<path d="M12.5 19.7917V23.9584" stroke="#787878" stroke-linecap="round" stroke-linejoin="round"/>
<path d="M8.3335 23.9583H16.6668" stroke="#787878" stroke-linecap="round" stroke-linejoin="round"/>
</svg>
