<svg width="25" height="25" viewBox="0 0 25 25" fill="none" xmlns="http://www.w3.org/2000/svg">
<g clip-path="url(#clip0_41_533)">
<path fill-rule="evenodd" clip-rule="evenodd" d="M2.90681 17.0957C1.41549 16.9986 0.282924 15.7147 0.37266 14.2229V9.77706C0.282924 8.28529 1.41549 7.0014 2.90681 6.90434H4.79802C5.36494 6.90077 5.91148 6.69248 6.33697 6.31783L8.97543 4.04188C9.77752 3.40984 10.8813 3.32302 11.7724 3.82187C12.6634 4.32072 13.1664 5.30708 13.0468 6.32125V17.6788C13.1664 18.6929 12.6634 19.6793 11.7724 20.1781C10.8813 20.677 9.77752 20.5902 8.97543 19.9581L6.33355 17.6822C5.90806 17.3075 5.36152 17.0992 4.7946 17.0957H2.90681Z" stroke="#787878" stroke-linecap="round" stroke-linejoin="round"/>
<path d="M22.0837 3.86258C21.9176 3.64197 21.6041 3.59779 21.3835 3.7639C21.1629 3.93 21.1187 4.24348 21.2848 4.46408L22.0837 3.86258ZM21.2848 19.5377C21.1187 19.7583 21.1629 20.0718 21.3835 20.2379C21.6041 20.404 21.9176 20.3598 22.0837 20.1392L21.2848 19.5377ZM17.8069 5.79649C17.6267 5.58732 17.3109 5.56392 17.1018 5.74421C16.8926 5.9245 16.8692 6.24022 17.0495 6.44938L17.8069 5.79649ZM17.0495 17.5524C16.8692 17.7616 16.8926 18.0773 17.1018 18.2576C17.3109 18.4379 17.6267 18.4145 17.8069 18.2053L17.0495 17.5524ZM21.2848 4.46408C24.6451 8.92682 24.6451 15.075 21.2848 19.5377L22.0837 20.1392C25.7121 15.3203 25.7121 8.68148 22.0837 3.86258L21.2848 4.46408ZM17.0495 6.44938C19.7994 9.6396 19.7994 14.3622 17.0495 17.5524L17.8069 18.2053C20.8802 14.6399 20.8802 9.36189 17.8069 5.79649L17.0495 6.44938Z" fill="#787878"/>
</g>
<defs>
<clipPath id="clip0_41_533">
<rect width="25" height="25" fill="white"/>
</clipPath>
</defs>
</svg>
